<svg width="20" height="20" viewBox="0 0 20 20" fill="none" xmlns="http://www.w3.org/2000/svg">
<path d="M12.5 18.9583H7.50001C2.97501 18.9583 1.04167 17.025 1.04167 12.5V7.50001C1.04167 2.97501 2.97501 1.04167 7.50001 1.04167H11.6667C12.0083 1.04167 12.2917 1.32501 12.2917 1.66667C12.2917 2.00834 12.0083 2.29167 11.6667 2.29167H7.50001C3.65834 2.29167 2.29167 3.65834 2.29167 7.50001V12.5C2.29167 16.3417 3.65834 17.7083 7.50001 17.7083H12.5C16.3417 17.7083 17.7083 16.3417 17.7083 12.5V8.33334C17.7083 7.99167 17.9917 7.70834 18.3333 7.70834C18.675 7.70834 18.9583 7.99167 18.9583 8.33334V12.5C18.9583 17.025 17.025 18.9583 12.5 18.9583Z" fill="#353535"/>
<path d="M18.3333 8.95833H15C12.15 8.95833 11.0417 7.85 11.0417 5V1.66666C11.0417 1.41666 11.1917 1.18333 11.425 1.09166C11.6583 0.991662 11.925 1.05 12.1083 1.225L18.775 7.89166C18.95 8.06666 19.0083 8.34166 18.9083 8.575C18.8083 8.80833 18.5833 8.95833 18.3333 8.95833ZM12.2917 3.175V5C12.2917 7.15 12.85 7.70833 15 7.70833H16.825L12.2917 3.175Z" fill="#353535"/>
<path d="M10.8333 11.4583H5.83333C5.49166 11.4583 5.20833 11.175 5.20833 10.8333C5.20833 10.4917 5.49166 10.2083 5.83333 10.2083H10.8333C11.175 10.2083 11.4583 10.4917 11.4583 10.8333C11.4583 11.175 11.175 11.4583 10.8333 11.4583Z" fill="#353535"/>
<path d="M9.16666 14.7917H5.83333C5.49166 14.7917 5.20833 14.5083 5.20833 14.1667C5.20833 13.825 5.49166 13.5417 5.83333 13.5417H9.16666C9.50833 13.5417 9.79166 13.825 9.79166 14.1667C9.79166 14.5083 9.50833 14.7917 9.16666 14.7917Z" fill="#353535"/>
</svg>
