<svg width="20" height="20" viewBox="0 0 20 20" fill="none" xmlns="http://www.w3.org/2000/svg">
<path d="M9.99999 1.66666C5.40832 1.66666 1.66666 5.40833 1.66666 10C1.66666 14.5917 5.40832 18.3333 9.99999 18.3333C14.5917 18.3333 18.3333 14.5917 18.3333 10C18.3333 5.40833 14.5917 1.66666 9.99999 1.66666ZM13.9833 8.08333L9.25832 12.8083C9.14166 12.925 8.98332 12.9917 8.81666 12.9917C8.64999 12.9917 8.49166 12.925 8.37499 12.8083L6.01666 10.45C5.77499 10.2083 5.77499 9.80833 6.01666 9.56666C6.25832 9.325 6.65832 9.325 6.89999 9.56666L8.81666 11.4833L13.1 7.2C13.3417 6.95833 13.7417 6.95833 13.9833 7.2C14.225 7.44166 14.225 7.83333 13.9833 8.08333Z" fill="#50C878"/>
</svg>
